<?xml version="1.0" ?><svg id="Layer_1" style="enable-background:new 0 0 32 32;" version="1.1" viewBox="0 0 32 32" xml:space="preserve" xmlns="http://www.w3.org/2000/svg" xmlns:xlink="http://www.w3.org/1999/xlink"><style type="text/css">
	.st0{fill:none;stroke:#414042;stroke-linecap:round;stroke-linejoin:round;stroke-miterlimit:10;}
</style><g><circle class="st0" cx="17.5" cy="11.5" r="1"/><path class="st0" d="M18.5,11.5v-7l0,0c0.64,0.64,1.51,1,2.41,1H21l0.5,1"/><line class="st0" x1="20.5" x2="24.5" y1="8.5" y2="8.5"/><line class="st0" x1="20.5" x2="24.5" y1="10.5" y2="10.5"/><line class="st0" x1="7.5" x2="16.5" y1="8.5" y2="8.5"/><line class="st0" x1="7.5" x2="16.5" y1="6.5" y2="6.5"/><line class="st0" x1="7.5" x2="14.5" y1="10.5" y2="10.5"/><line class="st0" x1="24.5" x2="23.5" y1="6.5" y2="6.5"/><circle class="st0" cx="11.5" cy="24.5" r="1"/><path class="st0" d="M12.5,24.5v-7l0,0c0.64,0.64,1.51,1,2.41,1H15l0.5,1"/><line class="st0" x1="14.5" x2="24.5" y1="21.5" y2="21.5"/><line class="st0" x1="14.5" x2="24.5" y1="23.5" y2="23.5"/><line class="st0" x1="7.5" x2="10.5" y1="21.5" y2="21.5"/><line class="st0" x1="7.5" x2="10.5" y1="19.5" y2="19.5"/><line class="st0" x1="7.5" x2="8.5" y1="23.5" y2="23.5"/><line class="st0" x1="24.5" x2="17.5" y1="19.5" y2="19.5"/><path class="st0" d="M4.5,1.5v29c0,0.55,0.45,1,1,1h17l5-5v-25c0-0.55-0.45-1-1-1h-21C4.95,0.5,4.5,0.95,4.5,1.5z"/><polyline class="st0" points="22.5,31.5 22.5,26.5 27.5,26.5  "/></g></svg>
